<svg xmlns="http://www.w3.org/2000/svg" viewBox="0 0 64 64">
  <!-- Fork -->
  <g transform="translate(14, 6) rotate(0)">
    <rect x="8" y="22" width="3" height="28" rx="1.5" fill="#d4a017"/>
    <rect x="3" y="4" width="2.4" height="16" rx="1.2" fill="#d4a017"/>
    <rect x="8.3" y="4" width="2.4" height="16" rx="1.2" fill="#d4a017"/>
    <rect x="13.6" y="4" width="2.4" height="16" rx="1.2" fill="#d4a017"/>
    <rect x="2" y="18" width="15" height="5" rx="2.5" fill="#b8860b"/>
  </g>
  <!-- Knife -->
  <g transform="translate(34, 6) rotate(0)">
    <rect x="7" y="22" width="3" height="28" rx="1.5" fill="#d4a017"/>
    <path d="M5 4 C5 4 4 10 4 16 C4 20 6 22 8.5 22 C11 22 13 20 13 16 C13 10 8.5 4 8.5 4 Z" fill="#b8860b"/>
    <path d="M6 6 C6 6 5.5 10 5.5 15" stroke="rgba(255,255,255,0.3)" stroke-width="1.2" fill="none" stroke-linecap="round"/>
  </g>
</svg>
