<svg xmlns="http://www.w3.org/2000/svg" viewBox="0 0 64 64">
  <defs>
    <linearGradient id="chili" x1="0" y1="0" x2="1" y2="1">
      <stop offset="0%" stop-color="#e53e3e"/>
      <stop offset="100%" stop-color="#c53030"/>
    </linearGradient>
    <linearGradient id="stem" x1="0" y1="0" x2="0" y2="1">
      <stop offset="0%" stop-color="#48bb78"/>
      <stop offset="100%" stop-color="#2f855a"/>
    </linearGradient>
  </defs>
  <!-- Stem -->
  <path d="M30 8 C30 8 28 4 32 2 C36 4 34 8 34 8" fill="url(#stem)"/>
  <path d="M26 10 C26 10 22 6 26 3" stroke="#48bb78" stroke-width="2" fill="none" stroke-linecap="round"/>
  <path d="M38 10 C38 10 42 6 38 3" stroke="#48bb78" stroke-width="2" fill="none" stroke-linecap="round"/>
  <!-- Chili body -->
  <path d="M24 12 C24 12 18 20 16 32 C14 44 20 56 28 60 C32 62 34 58 36 52 C40 40 44 28 42 18 C41 14 38 10 32 10 C28 10 25 10 24 12 Z" fill="url(#chili)"/>
  <!-- Highlight -->
  <path d="M28 16 C28 16 24 24 22 34 C21 40 23 48 26 52" stroke="rgba(255,255,255,0.3)" stroke-width="2.5" fill="none" stroke-linecap="round"/>
</svg>
